<svg width="109" height="104" viewBox="0 0 109 104" fill="none" xmlns="http://www.w3.org/2000/svg">
<path d="M76.6744 16.5268L68.3916 28.6977L100.717 54.3474L109 42.1765L76.6744 16.5268Z" fill="white"/>
<path d="M101.281 54.3537L89.9513 45.4426L68.351 77.4635L79.6809 86.3746L101.281 54.3537Z" fill="white"/>
<path d="M58.857 39.6014L76.1403 11.6529L49.089 2L29.9463 55.9277L54.2978 54.8916C54.2978 54.8916 40.3222 84.4939 35.3339 99.205C47.0448 80.5426 76.1522 40.4315 76.1522 40.4315L58.857 39.6014Z" fill="#DD902F"/>
<path d="M54.5243 39.7043L72.2366 10.7906L49.0711 2.01288L34.726 43.2824L31.1859 53.4694L41.8658 52.9224L51.5146 52.4333L36.5616 96.5279L66.8073 48.3341L71.6824 40.5731L60.6509 40.0132L54.5243 39.7043Z" fill="url(#paint0_linear)" stroke="#DD902F" stroke-width="1.86" stroke-miterlimit="10"/>
<path d="M36.0275 79.5628L42.179 65.9982L6.15145 46.9486L-1.72753e-05 60.5132L36.0275 79.5628Z" fill="white"/>
<path d="M6.17969 47.0151L18.7419 53.6574L35.2018 17.3618L22.6395 10.7195L6.17969 47.0151Z" fill="white"/>
<defs>
<linearGradient id="paint0_linear" x1="17.8063" y1="76.2761" x2="79.7504" y2="18.9034" gradientUnits="userSpaceOnUse">
<stop stop-color="#E6AC47"/>
<stop offset="0.49" stop-color="#F6EB41"/>
<stop offset="1" stop-color="#DD902F"/>
</linearGradient>
</defs>
</svg>
